<svg width="28" height="28" viewBox="0 0 28 28" fill="none" xmlns="http://www.w3.org/2000/svg">
<path d="M5.63111 12.1178C7.87111 16.52 11.48 20.1289 15.8822 22.3689L19.3044 18.9467C19.74 18.5111 20.3467 18.3867 20.8911 18.5578C22.6333 19.1333 24.5 19.4444 26.4444 19.4444C26.857 19.4444 27.2527 19.6083 27.5444 19.9001C27.8361 20.1918 28 20.5874 28 21V26.4444C28 26.857 27.8361 27.2527 27.5444 27.5444C27.2527 27.8361 26.857 28 26.4444 28C19.4309 28 12.7047 25.2139 7.7454 20.2546C2.7861 15.2953 0 8.56906 0 1.55556C0 1.143 0.163888 0.747335 0.455612 0.455612C0.747335 0.163888 1.143 0 1.55556 0H7C7.41256 0 7.80822 0.163888 8.09994 0.455612C8.39167 0.747335 8.55556 1.143 8.55556 1.55556C8.55556 3.5 8.86667 5.36667 9.44222 7.10889C9.61333 7.65333 9.48889 8.26 9.05333 8.69556L5.63111 12.1178Z" fill="#353333"/>
</svg>
