<svg width="16" height="17" viewBox="0 0 16 17" fill="none" xmlns="http://www.w3.org/2000/svg">
<path d="M3.21778 7.42444C4.49778 9.94 6.56 12.0022 9.07556 13.2822L11.0311 11.3267C11.28 11.0778 11.6267 11.0067 11.9378 11.1044C12.9333 11.4333 14 11.6111 15.1111 11.6111C15.3469 11.6111 15.573 11.7048 15.7397 11.8715C15.9064 12.0382 16 12.2643 16 12.5V15.6111C16 15.8469 15.9064 16.073 15.7397 16.2397C15.573 16.4064 15.3469 16.5 15.1111 16.5C11.1034 16.5 7.25983 14.9079 4.42594 12.0741C1.59206 9.24017 0 5.3966 0 1.38889C0 1.15314 0.0936505 0.927048 0.260349 0.760349C0.427048 0.59365 0.653141 0.5 0.888889 0.5H4C4.23575 0.5 4.46184 0.59365 4.62854 0.760349C4.79524 0.927048 4.88889 1.15314 4.88889 1.38889C4.88889 2.5 5.06667 3.56667 5.39556 4.56222C5.49333 4.87333 5.42222 5.22 5.17333 5.46889L3.21778 7.42444Z" fill="#353333"/>
</svg>
