<svg width="176" height="44" viewBox="0 0 176 44" fill="none" xmlns="http://www.w3.org/2000/svg">
<path d="M16.1038 16.5359C15.9075 16.4181 15.5932 16.4573 15.3968 16.8501C15.3576 16.8501 15.3576 16.9287 15.3183 16.968C13.9829 19.3639 9.26953 27.1802 5.14538 27.1802C4.08488 27.1802 2.55305 25.4127 2.55305 21.642C2.55305 17.8713 4.00632 13.1187 6.55937 8.52326C8.64109 4.7526 11.1156 1.88533 12.3332 1.88533C12.4903 1.88533 12.8831 2.27811 12.8831 3.45644C12.8831 4.20271 12.8045 4.98827 12.6081 5.73454C12.5296 6.04876 12.6867 6.40226 13.0009 6.52009C13.2759 6.63793 13.6294 6.55937 13.7865 6.12732C14.0221 5.65599 14.4542 4.24199 14.4542 3.29933C14.4542 2.23883 13.865 0.274945 11.5869 0.274945C9.26953 0.274945 6.40226 2.98511 3.84921 7.50204C1.45327 11.7833 0 16.6537 0 20.1887C0 22.1526 0.432055 24.1558 1.17833 25.6483C2.12099 27.4944 3.49571 28.4763 5.14538 28.4763C7.3842 28.4763 9.93725 26.591 12.726 22.9774C14.847 20.1887 16.3002 17.4393 16.3788 17.2429C16.4573 16.9287 16.3395 16.6537 16.1038 16.5359Z" fill="#353333"/>
<path d="M27.7825 16.9287C27.5861 16.8108 27.2719 16.8108 26.997 17.2036C25.6222 19.1675 23.6976 21.2492 22.4407 21.2492C22.048 21.2492 21.6159 20.7386 21.6159 19.8352C21.6159 18.107 22.5586 15.8682 22.9121 15.0434C22.9906 14.847 23.0299 14.7291 23.0299 14.6899C23.1477 14.2971 22.8335 13.9043 22.4407 13.6294C22.0087 13.3544 21.3802 13.1973 20.8696 13.6294C20.6733 13.8257 20.4769 14.1007 20.359 14.3756C20.0055 14.14 19.2593 13.6686 18.3951 13.6686C15.7243 13.6686 13.6033 17.2429 13.6033 20.1495C13.6033 22.5454 14.8994 23.1738 15.685 23.1738C16.8633 23.1738 18.1988 21.3671 19.3378 19.6388C19.3771 19.5603 19.4164 19.4817 19.4556 19.4425C19.6128 20.3851 19.927 21.1314 20.4376 21.6813C20.9089 22.2312 21.5766 22.5454 22.2836 22.5454C23.5012 22.5454 24.7974 21.7598 26.1721 20.228C27.1933 19.0497 27.9003 17.8321 27.9789 17.6357C28.0967 17.3607 28.0182 17.0465 27.7825 16.9287ZM19.4556 16.8501C19.0236 17.7142 16.7455 21.4849 15.7243 21.6027C15.7243 21.5634 15.7243 21.5242 15.7243 21.5242C15.7243 18.4212 18.3559 15.6718 19.2593 15.554C19.3771 15.7111 19.4949 16.3002 19.4949 16.7323C19.4949 16.7716 19.4556 16.8108 19.4556 16.8501Z" fill="#353333"/>
<path d="M39.4047 16.1431C39.2476 15.9075 38.9727 15.8289 38.737 15.9467C38.3049 16.1038 37.8336 16.1431 37.3623 16.1824C35.7126 16.1824 35.2806 15.3576 34.7699 14.4542C34.3772 13.7472 33.9451 13.0009 32.8453 13.0009C31.9812 13.0009 30.8029 14.0221 29.2318 16.1038C30.253 13.6686 31.235 11.7833 31.4313 11.4691C31.5885 11.1549 31.4706 10.7621 31.0778 10.4086C30.6065 9.97653 29.8602 9.78014 29.2318 10.2515C28.3677 10.9585 25.0291 18.4212 25.0291 22.8989C25.0291 23.9201 25.579 24.1165 25.8146 24.1165C25.8539 24.1558 25.8932 24.1558 25.9325 24.1558C26.4038 24.1558 26.8751 23.763 27.0322 23.2131C27.0715 23.1346 27.0715 23.056 27.0715 22.9774C27.1108 22.9774 27.1108 22.9774 27.1108 22.9382C27.1108 22.9382 27.1501 22.8596 27.2286 22.7025C29.3889 18.3427 31.5099 15.9075 32.9239 14.6506C32.9239 14.6899 32.9632 14.7291 32.9632 14.7291C34.5736 17.4 36.4589 17.4 37.3623 17.4C38.6977 17.4 39.169 16.9287 39.3262 16.8108C39.5225 16.6145 39.5618 16.3395 39.4047 16.1431Z" fill="#353333"/>
<path d="M49.0667 16.6145C48.831 16.4573 48.399 16.5752 48.2026 16.7716C48.0848 16.9287 48.0062 17.0858 47.8884 17.2429C43.6857 23.8808 41.4861 25.2555 40.3863 25.2555C39.8757 25.2555 39.2473 24.7842 39.2473 22.5847C39.2473 21.2099 39.483 18.8533 40.5827 15.6718C41.9967 14.9648 44.4319 12.6474 46.4744 9.93725C49.8523 5.53815 50.3236 2.78872 50.3236 1.57111C50.3236 0.628444 49.7737 0.0785566 48.8703 0.0785566C46.6315 0.0785566 43.45 4.24199 41.4076 7.77698C38.5796 12.726 36.8906 17.9106 36.8906 21.642C36.8906 25.3341 38.776 26.6695 40.4256 26.6695C41.9575 26.6695 43.8821 25.0984 46.1602 22.0348C47.8098 19.7567 49.106 17.4393 49.2238 17.2036C49.3417 16.9287 49.2238 16.7323 49.0667 16.6145ZM43.7249 8.7982C46.0816 4.67404 48.4775 1.88533 49.0274 1.68894C49.0274 1.72822 49.0274 1.7675 49.0274 1.80677C49.0274 4.00632 45.8852 10.2122 41.329 13.6294C42.036 11.9797 42.8216 10.33 43.7249 8.7982Z" fill="#353333"/>
<path d="M60.5778 16.9287C60.3814 16.8108 60.0672 16.8108 59.7923 17.2036C58.4176 19.1675 56.493 21.2492 55.2361 21.2492C54.8433 21.2492 54.4112 20.7386 54.4112 19.8352C54.4112 18.107 55.3539 15.8682 55.7074 15.0434C55.786 14.847 55.8252 14.7291 55.8252 14.6899C55.9431 14.2971 55.6288 13.9043 55.2361 13.6294C54.804 13.3544 54.1756 13.1973 53.665 13.6294C53.4686 13.8257 53.2722 14.1007 53.1544 14.3756C52.8009 14.14 52.0546 13.6686 51.1905 13.6686C48.5196 13.6686 46.3986 17.2429 46.3986 20.1495C46.3986 22.5454 47.6948 23.1738 48.4803 23.1738C49.6586 23.1738 50.9941 21.3671 52.1331 19.6388C52.1724 19.5603 52.2117 19.4817 52.251 19.4425C52.4081 20.3851 52.7223 21.1314 53.2329 21.6813C53.7042 22.2312 54.372 22.5454 55.079 22.5454C56.2966 22.5454 57.5927 21.7598 58.9674 20.228C59.9887 19.0497 60.6957 17.8321 60.7742 17.6357C60.8921 17.3607 60.8135 17.0465 60.5778 16.9287ZM52.251 16.8501C51.8189 17.7142 49.5408 21.4849 48.5196 21.6027C48.5196 21.5634 48.5196 21.5242 48.5196 21.5242C48.5196 18.4212 51.1512 15.6718 52.0546 15.554C52.1724 15.7111 52.2902 16.3002 52.2902 16.7323C52.2902 16.7716 52.251 16.8108 52.251 16.8501Z" fill="#353333"/>
<path d="M97.4654 0.117834C97.1905 0.117834 96.9548 0.353499 96.9548 0.628444C96.9155 0.903387 97.1512 1.13905 97.4261 1.13905C97.5047 1.17833 98.1331 1.49255 98.1331 2.71016C98.1331 5.30249 95.5801 11.037 91.9665 16.7323C88.1959 22.6632 84.5823 26.4732 82.7363 26.4732C82.1471 26.4732 81.3616 25.3341 81.3616 22.7811C81.3616 20.7386 82.3042 16.1431 83.129 12.0975C83.836 8.52326 84.4645 5.4596 84.4645 4.24199C84.4645 0.392776 82.3435 0 81.4008 0C79.7119 0 77.5909 1.29616 75.8627 3.45644C73.9773 5.77382 72.9169 8.60181 72.9169 11.2334C72.9169 14.1792 74.1737 14.8077 74.6843 14.8077C74.9593 14.8077 75.195 14.6899 75.2342 14.4542C75.3128 14.1792 75.195 13.9043 74.9593 13.7079C74.92 13.6686 74.8807 13.6686 74.8415 13.6294C74.488 13.5115 74.2916 12.7652 74.2916 11.4298C74.2916 8.16976 76.0591 5.61671 77.1196 4.35982C78.6121 2.59233 80.4582 1.37472 81.6758 1.37472C82.0685 1.37472 82.1864 1.68894 82.1864 2.59233C82.1864 4.32055 81.5187 6.95215 80.7724 10.0158C79.869 13.865 78.8085 18.2248 78.8085 21.7991C78.8085 23.4095 79.1227 24.8628 79.6726 25.9625C80.3796 27.298 81.4794 28.005 82.8541 28.005C86.5462 28.005 91.5345 20.5815 93.4983 17.3607C96.9941 11.7047 99.6257 5.65599 99.6257 3.29933C99.6257 2.16027 99.2722 1.414 98.9579 0.981944C98.5652 0.432056 98.0153 0.117834 97.4654 0.117834Z" fill="#353333"/>
<path d="M110.48 16.9287C110.284 16.8108 109.97 16.8108 109.695 17.2036C108.32 19.1675 106.396 21.2492 105.139 21.2492C104.746 21.2492 104.314 20.7386 104.314 19.8352C104.314 18.107 105.256 15.8682 105.61 15.0434C105.689 14.847 105.728 14.7291 105.728 14.6899C105.846 14.2971 105.531 13.9043 105.139 13.6294C104.707 13.3544 104.078 13.1973 103.568 13.6294C103.371 13.8257 103.175 14.1007 103.057 14.3756C102.703 14.14 101.957 13.6686 101.093 13.6686C98.4222 13.6686 96.3012 17.2429 96.3012 20.1495C96.3012 22.5454 97.5973 23.1738 98.3829 23.1738C99.5612 23.1738 100.897 21.3671 102.036 19.6388C102.075 19.5603 102.114 19.4817 102.154 19.4425C102.311 20.3851 102.625 21.1314 103.135 21.6813C103.607 22.2312 104.275 22.5454 104.982 22.5454C106.199 22.5454 107.495 21.7598 108.87 20.228C109.891 19.0497 110.598 17.8321 110.677 17.6357C110.795 17.3607 110.716 17.0465 110.48 16.9287ZM102.154 16.8501C101.722 17.7142 99.4434 21.4849 98.4222 21.6027C98.4222 21.5634 98.4222 21.5242 98.4222 21.5242C98.4222 18.4212 101.054 15.6718 101.957 15.554C102.075 15.7111 102.193 16.3002 102.193 16.7323C102.193 16.7716 102.154 16.8108 102.154 16.8501Z" fill="#353333"/>
<path d="M122.103 16.1431C121.946 15.9075 121.671 15.8289 121.435 15.9467C121.003 16.1038 120.532 16.1431 120.06 16.1824C118.411 16.1824 117.978 15.3576 117.468 14.4542C117.075 13.7472 116.643 13.0009 115.543 13.0009C114.679 13.0009 113.501 14.0221 111.93 16.1038C112.951 13.6686 113.933 11.7833 114.129 11.4691C114.286 11.1549 114.169 10.7621 113.776 10.4086C113.304 9.97653 112.558 9.78014 111.93 10.2515C111.066 10.9585 107.727 18.4212 107.727 22.8989C107.727 23.9201 108.277 24.1165 108.513 24.1165C108.552 24.1558 108.591 24.1558 108.63 24.1558C109.102 24.1558 109.573 23.763 109.73 23.2131C109.769 23.1346 109.769 23.056 109.769 22.9774C109.809 22.9774 109.809 22.9774 109.809 22.9382C109.809 22.9382 109.848 22.8596 109.927 22.7025C112.087 18.3427 114.208 15.9075 115.622 14.6506C115.622 14.6899 115.661 14.7291 115.661 14.7291C117.271 17.4 119.157 17.4 120.06 17.4C121.396 17.4 121.867 16.9287 122.024 16.8108C122.22 16.6145 122.26 16.3395 122.103 16.1431Z" fill="#353333"/>
<path d="M133.571 16.9287C133.375 16.8108 133.061 16.8108 132.786 17.2036C131.411 19.1675 129.487 21.2492 128.23 21.2492C127.837 21.2492 127.405 20.7386 127.405 19.8352C127.405 18.107 128.347 15.8682 128.701 15.0434C128.78 14.847 128.819 14.7291 128.819 14.6899C128.937 14.2971 128.622 13.9043 128.23 13.6294C127.798 13.3544 127.169 13.1973 126.659 13.6294C126.462 13.8257 126.266 14.1007 126.148 14.3756C125.794 14.14 125.048 13.6686 124.184 13.6686C121.513 13.6686 119.392 17.2429 119.392 20.1495C119.392 22.5454 120.688 23.1738 121.474 23.1738C122.652 23.1738 123.988 21.3671 125.127 19.6388C125.166 19.5603 125.205 19.4817 125.245 19.4425C125.402 20.3851 125.716 21.1314 126.226 21.6813C126.698 22.2312 127.366 22.5454 128.073 22.5454C129.29 22.5454 130.586 21.7598 131.961 20.228C132.982 19.0497 133.689 17.8321 133.768 17.6357C133.886 17.3607 133.807 17.0465 133.571 16.9287ZM125.245 16.8501C124.812 17.7142 122.534 21.4849 121.513 21.6027C121.513 21.5634 121.513 21.5242 121.513 21.5242C121.513 18.4212 124.145 15.6718 125.048 15.554C125.166 15.7111 125.284 16.3002 125.284 16.7323C125.284 16.7716 125.245 16.8108 125.245 16.8501Z" fill="#353333"/>
<path d="M148.257 16.3395C148.139 16.261 147.982 16.2217 147.825 16.261C147.707 16.3002 147.59 16.4181 147.511 16.5359C147.157 17.1643 144.133 21.0528 142.208 21.0528C142.091 21.0528 141.659 21.0528 141.659 19.4425C141.659 18.6962 141.698 18.0285 141.776 17.3607C141.816 16.693 141.855 16.0646 141.855 15.3969C141.855 13.8257 140.912 13.2366 140.127 13.2366C138.791 13.2366 136.867 15.554 135.178 17.7535C135.06 17.9106 134.942 18.0677 134.824 18.1856C135.335 16.7323 135.885 15.279 136.317 14.1007C136.867 12.6474 137.102 11.9011 137.142 11.7047C137.22 11.312 136.867 10.8406 136.474 10.5657C136.003 10.2515 135.453 10.2122 135.021 10.5264C134.157 11.1156 130.818 19.7174 130.818 22.5454C130.818 23.3309 131.407 23.763 131.996 23.8416C132.036 23.8416 132.114 23.8416 132.193 23.8416C132.664 23.8416 133.057 23.6059 133.175 23.2524C135.492 19.5996 138.477 16.4181 139.498 15.6325C139.498 15.7896 139.498 16.0646 139.459 16.3002C139.42 16.7323 139.381 17.2822 139.381 17.8713C139.381 20.6208 140.598 22.4276 142.444 22.4276C145.311 22.4276 148.493 17.1643 148.493 17.1251C148.65 16.8108 148.532 16.4573 148.257 16.3395Z" fill="#353333"/>
<path d="M163.299 16.8108C163.024 16.6537 162.631 16.7323 162.435 16.968C162.317 17.1251 162.199 17.2822 162.12 17.4393C157.918 24.0772 155.718 25.4519 154.579 25.4519C154.069 25.4519 153.44 24.9806 153.44 22.7811C153.44 21.4063 153.676 19.0497 154.776 15.8289C156.229 15.1612 158.625 12.8045 160.667 10.1336C164.045 5.69526 164.556 2.9851 164.556 1.7675C164.556 0.824832 164.006 0.274945 163.063 0.274945C160.864 0.274945 157.682 4.43838 155.64 7.97337C154.501 9.89798 153.558 11.9011 152.772 13.9829C152.419 13.6686 151.83 13.1973 150.966 13.1973C147.745 13.1973 146.017 17.6357 146.017 19.9138C146.017 23.2524 148.177 23.2917 148.177 23.2917C148.962 23.2917 149.905 22.3097 151.162 20.1887C151.162 20.1494 151.201 20.1102 151.201 20.1102C151.123 20.6601 151.083 21.2492 151.083 21.8384C151.083 25.5305 153.008 26.8267 154.618 26.8267C156.15 26.8267 158.075 25.2948 160.353 22.1919C162.003 19.9531 163.299 17.5964 163.417 17.3607C163.534 17.0858 163.417 16.8894 163.299 16.8108ZM157.918 8.95531C160.274 4.87043 162.67 2.04244 163.22 1.88533C163.22 1.92461 163.22 1.96388 163.22 2.00316C163.22 4.16343 160.078 10.4086 155.522 13.8257C156.229 12.1368 157.054 10.5264 157.918 8.95531ZM148.373 21.6813C148.373 21.6027 148.373 21.4849 148.373 21.4456C148.373 18.1463 150.534 14.8862 151.515 14.8862C151.633 14.8862 151.987 15.3183 152.065 15.554C152.065 15.5932 152.065 15.6325 152.105 15.6325C150.573 19.0497 148.766 21.4063 148.373 21.6813Z" fill="#353333"/>
<path d="M174.767 16.9287C174.571 16.8108 174.256 16.8108 173.981 17.2036C172.607 19.1675 170.682 21.2492 169.425 21.2492C169.032 21.2492 168.6 20.7386 168.6 19.8352C168.6 18.107 169.543 15.8682 169.896 15.0434C169.975 14.847 170.014 14.7291 170.014 14.6899C170.132 14.2971 169.818 13.9043 169.425 13.6294C168.993 13.3544 168.365 13.1973 167.854 13.6294C167.658 13.8257 167.461 14.1007 167.343 14.3756C166.99 14.14 166.244 13.6686 165.38 13.6686C162.709 13.6686 160.588 17.2429 160.588 20.1495C160.588 22.5454 161.884 23.1738 162.669 23.1738C163.848 23.1738 165.183 21.3671 166.322 19.6388C166.361 19.5603 166.401 19.4817 166.44 19.4425C166.597 20.3851 166.911 21.1314 167.422 21.6813C167.893 22.2312 168.561 22.5454 169.268 22.5454C170.486 22.5454 171.782 21.7598 173.157 20.228C174.178 19.0497 174.885 17.8321 174.963 17.6357C175.081 17.3607 175.003 17.0465 174.767 16.9287ZM166.44 16.8501C166.008 17.7142 163.73 21.4849 162.709 21.6027C162.709 21.5634 162.709 21.5242 162.709 21.5242C162.709 18.4212 165.34 15.6718 166.244 15.554C166.362 15.7111 166.479 16.3002 166.479 16.7323C166.479 16.7716 166.44 16.8108 166.44 16.8501Z" fill="#353333"/>
<path d="M46.3132 43.9461V37.6617H48.6653C49.198 37.6617 49.6559 37.7485 50.0389 37.9221C50.422 38.0897 50.7153 38.335 50.9188 38.6582C51.1282 38.9755 51.233 39.3615 51.233 39.8164C51.233 40.2593 51.1282 40.6423 50.9188 40.9655C50.7153 41.2827 50.422 41.5281 50.0389 41.7017C49.6559 41.8753 49.198 41.9621 48.6653 41.9621H46.6813L46.9775 41.6478V43.9461H46.3132ZM46.9775 41.7017L46.6813 41.3785H48.6474C49.2758 41.3785 49.7517 41.2438 50.0749 40.9745C50.404 40.6992 50.5686 40.3131 50.5686 39.8164C50.5686 39.3136 50.404 38.9246 50.0749 38.6493C49.7517 38.374 49.2758 38.2363 48.6474 38.2363H46.6813L46.9775 37.9221V41.7017Z" fill="#353333"/>
<path d="M57.1832 44C56.7164 44 56.2675 43.9252 55.8365 43.7756C55.4116 43.62 55.0824 43.4224 54.849 43.183L55.1093 42.6713C55.3308 42.8868 55.6271 43.0693 55.9981 43.2189C56.3752 43.3626 56.7702 43.4344 57.1832 43.4344C57.5782 43.4344 57.8984 43.3865 58.1438 43.2908C58.3952 43.189 58.5777 43.0544 58.6915 42.8868C58.8112 42.7192 58.871 42.5336 58.871 42.3301C58.871 42.0848 58.7992 41.8872 58.6555 41.7376C58.5179 41.588 58.3353 41.4713 58.1079 41.3875C57.8805 41.2977 57.6291 41.2199 57.3538 41.1541C57.0785 41.0882 56.8031 41.0194 56.5278 40.9476C56.2525 40.8698 55.9981 40.768 55.7647 40.6423C55.5373 40.5166 55.3517 40.352 55.2081 40.1486C55.0704 39.9391 55.0016 39.6667 55.0016 39.3316C55.0016 39.0203 55.0824 38.7361 55.244 38.4787C55.4116 38.2153 55.666 38.0059 56.0071 37.8502C56.3483 37.6886 56.7852 37.6078 57.3179 37.6078C57.671 37.6078 58.0211 37.6587 58.3683 37.7605C58.7154 37.8562 59.0147 37.9909 59.266 38.1645L59.0416 38.6942C58.7723 38.5146 58.485 38.3829 58.1797 38.2991C57.8805 38.2153 57.5902 38.1734 57.3089 38.1734C56.9318 38.1734 56.6206 38.2243 56.3752 38.3261C56.1298 38.4278 55.9473 38.5655 55.8276 38.739C55.7138 38.9066 55.657 39.0982 55.657 39.3136C55.657 39.559 55.7258 39.7565 55.8635 39.9062C56.0071 40.0558 56.1927 40.1725 56.4201 40.2563C56.6535 40.3401 56.9079 40.4149 57.1832 40.4807C57.4585 40.5466 57.7308 40.6184 58.0002 40.6962C58.2755 40.774 58.5269 40.8758 58.7543 41.0014C58.9877 41.1211 59.1733 41.2827 59.3109 41.4862C59.4546 41.6897 59.5264 41.9561 59.5264 42.2853C59.5264 42.5905 59.4426 42.8748 59.275 43.1381C59.1074 43.3955 58.8501 43.605 58.5029 43.7666C58.1618 43.9222 57.7219 44 57.1832 44Z" fill="#353333"/>
<path d="M63.6672 43.9461V37.6617H64.3316V43.9461H63.6672Z" fill="#353333"/>
<path d="M71.7989 44C71.3261 44 70.8892 43.9222 70.4882 43.7666C70.0872 43.605 69.74 43.3805 69.4467 43.0933C69.1535 42.806 68.923 42.4678 68.7555 42.0788C68.5939 41.6897 68.5131 41.2648 68.5131 40.8039C68.5131 40.3431 68.5939 39.9181 68.7555 39.5291C68.923 39.1401 69.1535 38.8019 69.4467 38.5146C69.746 38.2273 70.0961 38.0059 70.4971 37.8502C70.8981 37.6886 71.3351 37.6078 71.8079 37.6078C72.2628 37.6078 72.6907 37.6857 73.0917 37.8413C73.4927 37.9909 73.8309 38.2183 74.1062 38.5236L73.6842 38.9455C73.4269 38.6822 73.1426 38.4937 72.8314 38.3799C72.5201 38.2602 72.185 38.2004 71.8258 38.2004C71.4488 38.2004 71.0986 38.2662 70.7754 38.3979C70.4522 38.5236 70.1709 38.7061 69.9315 38.9455C69.6921 39.179 69.5036 39.4543 69.3659 39.7715C69.2343 40.0827 69.1684 40.4269 69.1684 40.8039C69.1684 41.181 69.2343 41.5281 69.3659 41.8453C69.5036 42.1566 69.6921 42.4319 69.9315 42.6713C70.1709 42.9047 70.4522 43.0873 70.7754 43.2189C71.0986 43.3446 71.4488 43.4075 71.8258 43.4075C72.185 43.4075 72.5201 43.3476 72.8314 43.2279C73.1426 43.1082 73.4269 42.9167 73.6842 42.6533L74.1062 43.0753C73.8309 43.3805 73.4927 43.611 73.0917 43.7666C72.6907 43.9222 72.2598 44 71.7989 44Z" fill="#353333"/>
<path d="M80.8314 44C80.3586 44 79.9187 43.9222 79.5117 43.7666C79.1107 43.605 78.7606 43.3805 78.4613 43.0933C78.168 42.8 77.9376 42.4618 77.77 42.0788C77.6084 41.6897 77.5276 41.2648 77.5276 40.8039C77.5276 40.3431 77.6084 39.9211 77.77 39.5381C77.9376 39.149 78.168 38.8109 78.4613 38.5236C78.7606 38.2303 79.1107 38.0059 79.5117 37.8502C79.9127 37.6886 80.3526 37.6078 80.8314 37.6078C81.3043 37.6078 81.7412 37.6886 82.1422 37.8502C82.5432 38.0059 82.8903 38.2273 83.1836 38.5146C83.4829 38.8019 83.7133 39.1401 83.8749 39.5291C84.0425 39.9181 84.1263 40.3431 84.1263 40.8039C84.1263 41.2648 84.0425 41.6897 83.8749 42.0788C83.7133 42.4678 83.4829 42.806 83.1836 43.0933C82.8903 43.3805 82.5432 43.605 82.1422 43.7666C81.7412 43.9222 81.3043 44 80.8314 44ZM80.8314 43.4075C81.2085 43.4075 81.5557 43.3446 81.8729 43.2189C82.1961 43.0873 82.4744 42.9047 82.7078 42.6713C82.9472 42.4319 83.1327 42.1566 83.2644 41.8453C83.3961 41.5281 83.4619 41.181 83.4619 40.8039C83.4619 40.4269 83.3961 40.0827 83.2644 39.7715C83.1327 39.4543 82.9472 39.179 82.7078 38.9455C82.4744 38.7061 82.1961 38.5236 81.8729 38.3979C81.5557 38.2662 81.2085 38.2004 80.8314 38.2004C80.4544 38.2004 80.1042 38.2662 79.781 38.3979C79.4578 38.5236 79.1765 38.7061 78.9371 38.9455C78.7037 39.179 78.5182 39.4543 78.3805 39.7715C78.2488 40.0827 78.183 40.4269 78.183 40.8039C78.183 41.175 78.2488 41.5192 78.3805 41.8364C78.5182 42.1536 78.7037 42.4319 78.9371 42.6713C79.1765 42.9047 79.4578 43.0873 79.781 43.2189C80.1042 43.3446 80.4544 43.4075 80.8314 43.4075Z" fill="#353333"/>
<path d="M88.3087 43.9461V37.6617H88.9731V43.3716H92.4924V43.9461H88.3087Z" fill="#353333"/>
<path d="M98.9132 44C98.4404 44 98.0005 43.9222 97.5935 43.7666C97.1925 43.605 96.8423 43.3805 96.5431 43.0933C96.2498 42.8 96.0194 42.4618 95.8518 42.0788C95.6902 41.6897 95.6094 41.2648 95.6094 40.8039C95.6094 40.3431 95.6902 39.9211 95.8518 39.5381C96.0194 39.149 96.2498 38.8109 96.5431 38.5236C96.8423 38.2303 97.1925 38.0059 97.5935 37.8502C97.9945 37.6886 98.4344 37.6078 98.9132 37.6078C99.386 37.6078 99.823 37.6886 100.224 37.8502C100.625 38.0059 100.972 38.2273 101.265 38.5146C101.565 38.8019 101.795 39.1401 101.957 39.5291C102.124 39.9181 102.208 40.3431 102.208 40.8039C102.208 41.2648 102.124 41.6897 101.957 42.0788C101.795 42.4678 101.565 42.806 101.265 43.0933C100.972 43.3805 100.625 43.605 100.224 43.7666C99.823 43.9222 99.386 44 98.9132 44ZM98.9132 43.4075C99.2903 43.4075 99.6374 43.3446 99.9546 43.2189C100.278 43.0873 100.556 42.9047 100.79 42.6713C101.029 42.4319 101.215 42.1566 101.346 41.8453C101.478 41.5281 101.544 41.181 101.544 40.8039C101.544 40.4269 101.478 40.0827 101.346 39.7715C101.215 39.4543 101.029 39.179 100.79 38.9455C100.556 38.7061 100.278 38.5236 99.9546 38.3979C99.6374 38.2662 99.2903 38.2004 98.9132 38.2004C98.5361 38.2004 98.186 38.2662 97.8628 38.3979C97.5396 38.5236 97.2583 38.7061 97.0189 38.9455C96.7855 39.179 96.5999 39.4543 96.4623 39.7715C96.3306 40.0827 96.2648 40.4269 96.2648 40.8039C96.2648 41.175 96.3306 41.5192 96.4623 41.8364C96.5999 42.1536 96.7855 42.4319 97.0189 42.6713C97.2583 42.9047 97.5396 43.0873 97.8628 43.2189C98.186 43.3446 98.5361 43.4075 98.9132 43.4075Z" fill="#353333"/>
<path d="M109.147 44C108.668 44 108.225 43.9222 107.818 43.7666C107.417 43.605 107.067 43.3805 106.768 43.0933C106.474 42.806 106.244 42.4678 106.076 42.0788C105.915 41.6897 105.834 41.2648 105.834 40.8039C105.834 40.3431 105.915 39.9181 106.076 39.5291C106.244 39.1401 106.477 38.8019 106.777 38.5146C107.076 38.2273 107.426 38.0059 107.827 37.8502C108.234 37.6886 108.677 37.6078 109.156 37.6078C109.634 37.6078 110.071 37.6827 110.466 37.8323C110.867 37.9819 111.209 38.2094 111.49 38.5146L111.077 38.9366C110.814 38.6732 110.523 38.4847 110.206 38.371C109.889 38.2572 109.548 38.2004 109.183 38.2004C108.794 38.2004 108.434 38.2662 108.105 38.3979C107.782 38.5236 107.498 38.7061 107.252 38.9455C107.013 39.179 106.824 39.4543 106.687 39.7715C106.555 40.0827 106.489 40.4269 106.489 40.8039C106.489 41.175 106.555 41.5192 106.687 41.8364C106.824 42.1536 107.013 42.4319 107.252 42.6713C107.498 42.9047 107.782 43.0873 108.105 43.2189C108.434 43.3446 108.791 43.4075 109.174 43.4075C109.533 43.4075 109.871 43.3536 110.188 43.2459C110.511 43.1381 110.808 42.9556 111.077 42.6982L111.454 43.201C111.155 43.4643 110.805 43.6648 110.404 43.8025C110.003 43.9342 109.584 44 109.147 44ZM110.817 43.1202V40.8039H111.454V43.201L110.817 43.1202Z" fill="#353333"/>
<path d="M116.028 43.9461V37.6617H116.692V43.9461H116.028Z" fill="#353333"/>
<path d="M120.424 43.9461L123.297 37.6617H123.953L126.826 43.9461H126.125L123.486 38.0478H123.755L121.116 43.9461H120.424ZM121.556 42.2673L121.753 41.7286H125.407L125.605 42.2673H121.556Z" fill="#353333"/>
</svg>
