<svg width="451" height="114" viewBox="0 0 451 114" fill="none" xmlns="http://www.w3.org/2000/svg">
<path d="M41.4337 42.5454C40.9284 42.2422 40.12 42.3433 39.6147 43.3538C39.5136 43.3538 39.5136 43.5559 39.4126 43.657C35.9766 49.8215 23.8497 69.9321 13.2386 69.9321C10.51 69.9321 6.56876 65.3844 6.56876 55.6829C6.56876 45.9813 10.3079 33.7533 16.8767 21.9296C22.2327 12.228 28.5994 4.85078 31.7322 4.85078C32.1364 4.85078 33.147 5.86136 33.147 8.89309C33.147 10.8132 32.9449 12.8344 32.4396 14.7545C32.2375 15.5629 32.6417 16.4724 33.4502 16.7756C34.1576 17.0788 35.0671 16.8767 35.4713 15.765C36.0777 14.5523 37.1893 10.9143 37.1893 8.48886C37.1893 5.7603 35.6734 0.707409 29.8121 0.707409C23.8497 0.707409 16.4724 7.6804 9.90367 19.3021C3.73914 30.3174 0 42.8485 0 51.9437C0 56.9966 1.11164 62.1506 3.03174 65.9908C5.45712 70.7405 8.99415 73.267 13.2386 73.267C18.9989 73.267 25.5676 68.4162 32.7427 59.1189C38.1999 51.9438 41.939 44.8697 42.1411 44.3644C42.3432 43.5559 42.0401 42.8485 41.4337 42.5454Z" fill="white"/>
<path d="M71.4819 43.5559C70.9766 43.2528 70.1681 43.2528 69.4607 44.2634C65.9237 49.3162 60.9718 54.6723 57.738 54.6723C56.7274 54.6723 55.6158 53.3586 55.6158 51.0342C55.6158 46.5877 58.0412 40.8274 58.9507 38.7052C59.1528 38.1999 59.2539 37.8967 59.2539 37.7957C59.557 36.7851 58.7486 35.7745 57.738 35.0671C56.6264 34.3597 55.0094 33.9554 53.6957 35.0671C53.1904 35.5724 52.6851 36.2798 52.3819 36.9872C51.4724 36.3808 49.5523 35.1681 47.329 35.1681C40.4571 35.1681 35 44.3644 35 51.8427C35 58.0072 38.3349 59.6241 40.356 59.6241C43.3878 59.6241 46.8237 54.9755 49.7544 50.5289C49.8555 50.3268 49.9565 50.1247 50.0576 50.0237C50.4618 52.449 51.2703 54.3691 52.584 55.784C53.7967 57.1988 55.5147 58.0072 57.3338 58.0072C60.4666 58.0072 63.8015 55.9861 67.3385 52.0448C69.966 49.0131 71.785 45.8803 71.9872 45.375C72.2903 44.6676 72.0882 43.8591 71.4819 43.5559ZM50.0576 43.3538C48.946 45.5771 43.0846 55.2787 40.4571 55.5818C40.4571 55.4808 40.4571 55.3797 40.4571 55.3797C40.4571 47.3961 47.228 40.3221 49.5523 40.0189C49.8555 40.4231 50.1586 41.939 50.1586 43.0507C50.1586 43.1517 50.0576 43.2528 50.0576 43.3538Z" fill="white"/>
<path d="M101.385 41.5348C100.98 40.9284 100.273 40.7263 99.6667 41.0295C98.5551 41.4337 97.3424 41.5348 96.1297 41.6358C91.8853 41.6358 90.7737 39.5136 89.4599 37.1893C88.4493 35.3703 87.3377 33.4502 84.5081 33.4502C82.2848 33.4502 79.253 36.0777 75.2107 41.4337C77.8382 35.1681 80.3647 30.3174 80.87 29.5089C81.2742 28.7004 80.971 27.6899 79.9605 26.7803C78.7478 25.6687 76.8277 25.1634 75.2107 26.3761C72.9875 28.1951 64.3975 47.3961 64.3975 58.9167C64.3975 61.5443 65.8124 62.0495 66.4187 62.0495C66.5198 62.1506 66.6208 62.1506 66.7219 62.1506C67.9346 62.1506 69.1473 61.14 69.5515 59.7252C69.6525 59.5231 69.6525 59.321 69.6525 59.1189C69.7536 59.1189 69.7536 59.1189 69.7536 59.0178C69.7536 59.0178 69.8547 58.8157 70.0568 58.4115C75.615 47.194 81.0721 40.9284 84.7102 37.6946C84.7102 37.7957 84.8112 37.8967 84.8112 37.8967C88.9546 44.7686 93.8054 44.7686 96.1297 44.7686C99.5657 44.7686 100.778 43.5559 101.183 43.2528C101.688 42.7475 101.789 42.0401 101.385 41.5348Z" fill="white"/>
<path d="M126.244 42.7475C125.638 42.3433 124.526 42.6464 124.021 43.1517C123.718 43.5559 123.516 43.9602 123.212 44.3644C112.399 61.4432 106.74 64.9802 103.91 64.9802C102.597 64.9802 100.98 63.7675 100.98 58.1083C100.98 54.5713 101.586 48.5078 104.416 40.3221C108.054 38.5031 114.319 32.5406 119.574 25.5676C128.265 14.2492 129.478 7.17511 129.478 4.04232C129.478 1.61693 128.063 0.202119 125.739 0.202119C119.979 0.202119 111.793 10.9143 106.538 20.0095C99.2617 32.7428 94.9162 46.0824 94.9162 55.6829C94.9162 65.1823 99.767 68.6183 104.011 68.6183C107.953 68.6183 112.905 64.576 118.766 56.6935C123.01 50.8321 126.345 44.8697 126.648 44.2634C126.952 43.5559 126.648 43.0507 126.244 42.7475ZM112.5 22.637C118.564 12.0259 124.728 4.85078 126.143 4.34549C126.143 4.44655 126.143 4.54761 126.143 4.64866C126.143 10.3079 118.058 26.275 106.336 35.0671C108.155 30.8227 110.176 26.5782 112.5 22.637Z" fill="white"/>
<path d="M155.861 43.5559C155.356 43.2528 154.547 43.2528 153.84 44.2634C150.303 49.3162 145.351 54.6723 142.117 54.6723C141.107 54.6723 139.995 53.3586 139.995 51.0342C139.995 46.5877 142.421 40.8274 143.33 38.7052C143.532 38.1999 143.633 37.8967 143.633 37.7957C143.936 36.7851 143.128 35.7745 142.117 35.0671C141.006 34.3597 139.389 33.9554 138.075 35.0671C137.57 35.5724 137.064 36.2798 136.761 36.9872C135.852 36.3808 133.932 35.1681 131.708 35.1681C124.836 35.1681 119.379 44.3644 119.379 51.8427C119.379 58.0072 122.714 59.6241 124.735 59.6241C127.767 59.6241 131.203 54.9755 134.134 50.5289C134.235 50.3268 134.336 50.1247 134.437 50.0237C134.841 52.449 135.65 54.3691 136.963 55.784C138.176 57.1988 139.894 58.0072 141.713 58.0072C144.846 58.0072 148.181 55.9861 151.718 52.0448C154.345 49.0131 156.164 45.8803 156.367 45.375C156.67 44.6676 156.468 43.8591 155.861 43.5559ZM134.437 43.3538C133.325 45.5771 127.464 55.2787 124.836 55.5818C124.836 55.4808 124.836 55.3797 124.836 55.3797C124.836 47.3961 131.607 40.3221 133.932 40.0189C134.235 40.4231 134.538 41.939 134.538 43.0507C134.538 43.1517 134.437 43.2528 134.437 43.3538Z" fill="white"/>
<path d="M250.77 0.303176C250.062 0.303176 249.456 0.909522 249.456 1.61693C249.355 2.32433 249.961 2.93068 250.669 2.93068C250.871 3.03174 252.488 3.8402 252.488 6.97299C252.488 13.6428 245.919 28.3973 236.621 43.0507C226.92 58.3104 217.623 68.113 212.873 68.113C211.357 68.113 209.336 65.1823 209.336 58.6136C209.336 53.3586 211.761 41.5348 213.883 31.1258C215.702 21.9296 217.319 14.047 217.319 10.9143C217.319 1.01058 211.862 0 209.437 0C205.091 0 199.634 3.33491 195.188 8.89309C190.337 14.8555 187.608 22.1317 187.608 28.9026C187.608 36.4819 190.842 38.0988 192.156 38.0988C192.863 38.0988 193.47 37.7956 193.571 37.1893C193.773 36.4819 193.47 35.7745 192.863 35.2692C192.762 35.1681 192.661 35.1681 192.56 35.0671C191.651 34.7639 191.145 32.8438 191.145 29.4078C191.145 21.02 195.693 14.4513 198.422 11.2174C202.262 6.66982 207.012 3.53703 210.144 3.53703C211.155 3.53703 211.458 4.34549 211.458 6.66982C211.458 11.1164 209.74 17.8872 207.82 25.7698C205.496 35.6734 202.767 46.8909 202.767 56.0871C202.767 60.2305 203.576 63.9696 204.99 66.7993C206.809 70.2352 209.639 72.0543 213.176 72.0543C222.675 72.0543 235.51 52.9543 240.563 44.6676C249.557 30.1152 256.328 14.5523 256.328 8.48886C256.328 5.55818 255.418 3.63809 254.61 2.52645C253.599 1.11164 252.184 0.303176 250.77 0.303176Z" fill="white"/>
<path d="M284.256 43.5559C283.751 43.2528 282.942 43.2528 282.235 44.2634C278.698 49.3162 273.746 54.6723 270.512 54.6723C269.502 54.6723 268.39 53.3586 268.39 51.0342C268.39 46.5877 270.815 40.8274 271.725 38.7052C271.927 38.1999 272.028 37.8967 272.028 37.7957C272.331 36.7851 271.523 35.7745 270.512 35.0671C269.401 34.3597 267.784 33.9554 266.47 35.0671C265.965 35.5724 265.459 36.2798 265.156 36.9872C264.247 36.3808 262.326 35.1681 260.103 35.1681C253.231 35.1681 247.774 44.3644 247.774 51.8427C247.774 58.0072 251.109 59.6241 253.13 59.6241C256.162 59.6241 259.598 54.9755 262.529 50.5289C262.63 50.3268 262.731 50.1247 262.832 50.0237C263.236 52.449 264.044 54.3691 265.358 55.784C266.571 57.1988 268.289 58.0072 270.108 58.0072C273.241 58.0072 276.576 55.9861 280.113 52.0448C282.74 49.0131 284.559 45.8803 284.761 45.375C285.064 44.6676 284.862 43.8591 284.256 43.5559ZM262.832 43.3538C261.72 45.5771 255.859 55.2787 253.231 55.5818C253.231 55.4808 253.231 55.3797 253.231 55.3797C253.231 47.3961 260.002 40.3221 262.326 40.0189C262.63 40.4231 262.933 41.939 262.933 43.0507C262.933 43.1517 262.832 43.2528 262.832 43.3538Z" fill="white"/>
<path d="M314.159 41.5348C313.755 40.9284 313.047 40.7263 312.441 41.0295C311.329 41.4337 310.117 41.5348 308.904 41.6358C304.659 41.6358 303.548 39.5136 302.234 37.1893C301.223 35.3703 300.112 33.4502 297.282 33.4502C295.059 33.4502 292.027 36.0777 287.985 41.4337C290.612 35.1681 293.139 30.3174 293.644 29.5089C294.048 28.7004 293.745 27.6899 292.735 26.7803C291.522 25.6687 289.602 25.1634 287.985 26.3761C285.762 28.1951 277.172 47.3961 277.172 58.9167C277.172 61.5443 278.587 62.0495 279.193 62.0495C279.294 62.1506 279.395 62.1506 279.496 62.1506C280.709 62.1506 281.921 61.14 282.326 59.7252C282.427 59.5231 282.427 59.321 282.427 59.1189C282.528 59.1189 282.528 59.1189 282.528 59.0178C282.528 59.0178 282.629 58.8157 282.831 58.4115C288.389 47.194 293.846 40.9284 297.484 37.6946C297.484 37.7957 297.585 37.8967 297.585 37.8967C301.729 44.7686 306.58 44.7686 308.904 44.7686C312.34 44.7686 313.553 43.5559 313.957 43.2528C314.462 42.7475 314.563 42.0401 314.159 41.5348Z" fill="white"/>
<path d="M343.667 43.5559C343.162 43.2528 342.353 43.2528 341.646 44.2634C338.109 49.3162 333.157 54.6723 329.923 54.6723C328.913 54.6723 327.801 53.3586 327.801 51.0342C327.801 46.5877 330.226 40.8274 331.136 38.7052C331.338 38.1999 331.439 37.8967 331.439 37.7957C331.742 36.7851 330.934 35.7745 329.923 35.0671C328.811 34.3597 327.195 33.9554 325.881 35.0671C325.376 35.5724 324.87 36.2798 324.567 36.9872C323.658 36.3808 321.737 35.1681 319.514 35.1681C312.642 35.1681 307.185 44.3644 307.185 51.8427C307.185 58.0072 310.52 59.6241 312.541 59.6241C315.573 59.6241 319.009 54.9755 321.94 50.5289C322.041 50.3268 322.142 50.1247 322.243 50.0237C322.647 52.449 323.455 54.3691 324.769 55.784C325.982 57.1988 327.7 58.0072 329.519 58.0072C332.652 58.0072 335.987 55.9861 339.524 52.0448C342.151 49.0131 343.97 45.8803 344.172 45.375C344.475 44.6676 344.273 43.8591 343.667 43.5559ZM322.243 43.3538C321.131 45.5771 315.27 55.2787 312.642 55.5818C312.642 55.4808 312.642 55.3797 312.642 55.3797C312.642 47.3961 319.413 40.3221 321.737 40.0189C322.041 40.4231 322.344 41.939 322.344 43.0507C322.344 43.1517 322.243 43.2528 322.243 43.3538Z" fill="white"/>
<path d="M381.452 42.0401C381.149 41.838 380.745 41.7369 380.341 41.838C380.038 41.939 379.734 42.2422 379.532 42.5454C378.623 44.1623 370.841 54.167 365.889 54.167C365.586 54.167 364.475 54.167 364.475 50.0237C364.475 48.1036 364.576 46.3856 364.778 44.6676C364.879 42.9496 364.98 41.3327 364.98 39.6147C364.98 35.5724 362.555 34.0565 360.533 34.0565C357.097 34.0565 352.146 40.0189 347.8 45.6782C347.497 46.0824 347.194 46.4866 346.891 46.7898C348.204 43.0507 349.619 39.3115 350.731 36.2798C352.146 32.5406 352.752 30.6205 352.853 30.1152C353.055 29.1047 352.146 27.892 351.135 27.1846C349.922 26.3761 348.508 26.2751 347.396 27.0835C345.173 28.5994 336.583 50.7311 336.583 58.0072C336.583 60.0284 338.099 61.14 339.614 61.3421C339.715 61.3421 339.918 61.3421 340.12 61.3421C341.332 61.3421 342.343 60.7358 342.646 59.8263C348.609 50.4279 356.289 42.2422 358.916 40.221C358.916 40.6253 358.916 41.3327 358.815 41.939C358.714 43.0507 358.613 44.4655 358.613 45.9813C358.613 53.0554 361.746 57.7041 366.496 57.7041C373.873 57.7041 382.059 44.1623 382.059 44.0612C382.463 43.2528 382.16 42.3433 381.452 42.0401Z" fill="white"/>
<path d="M420.153 43.2528C419.445 42.8485 418.435 43.0507 417.93 43.657C417.626 44.0612 417.323 44.4655 417.121 44.8697C406.308 61.9485 400.649 65.4855 397.718 65.4855C396.404 65.4855 394.787 64.2728 394.787 58.6136C394.787 55.0765 395.394 49.0131 398.223 40.7263C401.962 39.0083 408.127 32.9449 413.382 26.0729C422.073 14.6534 423.387 7.6804 423.387 4.54761C423.387 2.12222 421.972 0.707409 419.546 0.707409C413.887 0.707409 405.702 11.4195 400.447 20.5147C397.516 25.4666 395.09 30.6205 393.069 35.9766C392.16 35.1681 390.644 33.9555 388.421 33.9555C380.134 33.9555 375.687 45.375 375.687 51.2363C375.687 59.8263 381.246 59.9273 381.246 59.9273C383.267 59.9273 385.692 57.4009 388.926 51.9437C388.926 51.8427 389.027 51.7416 389.027 51.7416C388.825 53.1564 388.724 54.6723 388.724 56.1882C388.724 65.6876 393.676 69.0225 397.819 69.0225C401.76 69.0225 406.712 65.0813 412.573 57.0977C416.818 51.3374 420.153 45.2739 420.456 44.6676C420.759 43.9602 420.456 43.4549 420.153 43.2528ZM406.308 23.0412C412.371 12.5312 418.536 5.25501 419.951 4.85078C419.951 4.95184 419.951 5.0529 419.951 5.15395C419.951 10.7121 411.866 26.7803 400.143 35.5724C401.962 31.2269 404.085 27.0835 406.308 23.0412ZM381.751 55.784C381.751 55.5818 381.751 55.2787 381.751 55.1776C381.751 46.6887 387.309 38.3009 389.835 38.3009C390.139 38.3009 391.048 39.4126 391.25 40.0189C391.25 40.12 391.25 40.221 391.351 40.221C387.41 49.0131 382.761 55.0765 381.751 55.784Z" fill="white"/>
<path d="M449.659 43.5559C449.154 43.2528 448.346 43.2528 447.638 44.2634C444.101 49.3162 439.149 54.6723 435.915 54.6723C434.905 54.6723 433.793 53.3586 433.793 51.0342C433.793 46.5877 436.219 40.8274 437.128 38.7052C437.33 38.1999 437.431 37.8967 437.431 37.7957C437.734 36.7851 436.926 35.7745 435.915 35.0671C434.804 34.3597 433.187 33.9554 431.873 35.0671C431.368 35.5724 430.863 36.2798 430.559 36.9872C429.65 36.3808 427.73 35.1681 425.507 35.1681C418.635 35.1681 413.177 44.3644 413.177 51.8427C413.177 58.0072 416.512 59.6241 418.534 59.6241C421.565 59.6241 425.001 54.9755 427.932 50.5289C428.033 50.3268 428.134 50.1247 428.235 50.0237C428.639 52.449 429.448 54.3691 430.762 55.784C431.974 57.1988 433.692 58.0072 435.511 58.0072C438.644 58.0072 441.979 55.9861 445.516 52.0448C448.143 49.0131 449.963 45.8803 450.165 45.375C450.468 44.6676 450.266 43.8591 449.659 43.5559ZM428.235 43.3538C427.123 45.5771 421.262 55.2787 418.635 55.5818C418.635 55.4808 418.635 55.3797 418.635 55.3797C418.635 47.3961 425.405 40.3221 427.73 40.0189C428.033 40.4231 428.336 41.939 428.336 43.0507C428.336 43.1517 428.235 43.2528 428.235 43.3538Z" fill="white"/>
<path d="M119.16 113.069V96.9001H125.212C126.582 96.9001 127.76 97.1234 128.746 97.57C129.731 98.0012 130.486 98.6325 131.009 99.4641C131.548 100.28 131.818 101.274 131.818 102.444C131.818 103.583 131.548 104.569 131.009 105.401C130.486 106.217 129.731 106.848 128.746 107.295C127.76 107.741 126.582 107.965 125.212 107.965H120.107L120.869 107.156V113.069H119.16ZM120.869 107.295L120.107 106.463H125.165C126.782 106.463 128.007 106.117 128.838 105.424C129.685 104.715 130.109 103.722 130.109 102.444C130.109 101.15 129.685 100.149 128.838 99.441C128.007 98.7326 126.782 98.3785 125.165 98.3785H120.107L120.869 97.57V107.295Z" fill="white"/>
<path d="M147.127 113.208C145.926 113.208 144.771 113.015 143.662 112.631C142.569 112.23 141.722 111.722 141.122 111.106L141.791 109.789C142.361 110.344 143.123 110.813 144.078 111.198C145.048 111.568 146.065 111.753 147.127 111.753C148.144 111.753 148.967 111.63 149.599 111.383C150.246 111.121 150.715 110.775 151.008 110.344C151.316 109.913 151.47 109.435 151.47 108.912C151.47 108.28 151.285 107.772 150.915 107.387C150.561 107.002 150.092 106.702 149.506 106.486C148.921 106.255 148.274 106.055 147.566 105.886C146.858 105.716 146.149 105.539 145.441 105.354C144.733 105.154 144.078 104.892 143.478 104.569C142.892 104.246 142.415 103.822 142.045 103.299C141.691 102.76 141.514 102.059 141.514 101.197C141.514 100.396 141.722 99.6643 142.138 99.0021C142.569 98.3246 143.224 97.7856 144.101 97.3852C144.979 96.9694 146.103 96.7615 147.474 96.7615C148.382 96.7615 149.283 96.8924 150.176 97.1542C151.069 97.4006 151.839 97.7471 152.486 98.1937L151.909 99.5565C151.216 99.0945 150.477 98.7557 149.691 98.5401C148.921 98.3246 148.174 98.2168 147.451 98.2168C146.48 98.2168 145.68 98.3477 145.048 98.6094C144.417 98.8712 143.947 99.2254 143.639 99.672C143.347 100.103 143.2 100.596 143.2 101.15C143.2 101.782 143.378 102.29 143.732 102.675C144.101 103.06 144.579 103.36 145.164 103.576C145.764 103.791 146.419 103.984 147.127 104.153C147.836 104.323 148.536 104.507 149.229 104.708C149.938 104.908 150.584 105.17 151.17 105.493C151.77 105.801 152.248 106.217 152.602 106.74C152.971 107.264 153.156 107.949 153.156 108.796C153.156 109.581 152.94 110.313 152.509 110.99C152.078 111.653 151.416 112.192 150.523 112.607C149.645 113.008 148.513 113.208 147.127 113.208Z" fill="white"/>
<path d="M163.81 113.069V96.9001H165.519V113.069H163.81Z" fill="white"/>
<path d="M184.732 113.208C183.516 113.208 182.391 113.008 181.36 112.607C180.328 112.192 179.435 111.614 178.68 110.875C177.926 110.136 177.333 109.266 176.902 108.265C176.486 107.264 176.278 106.17 176.278 104.985C176.278 103.799 176.486 102.706 176.902 101.705C177.333 100.704 177.926 99.8337 178.68 99.0945C179.45 98.3554 180.351 97.7856 181.383 97.3852C182.415 96.9694 183.539 96.7615 184.755 96.7615C185.926 96.7615 187.027 96.9617 188.058 97.3621C189.09 97.7471 189.96 98.3323 190.669 99.1176L189.583 100.203C188.921 99.5257 188.189 99.0406 187.389 98.748C186.588 98.4401 185.725 98.2861 184.801 98.2861C183.831 98.2861 182.93 98.4555 182.099 98.7942C181.267 99.1176 180.544 99.5873 179.928 100.203C179.312 100.804 178.827 101.512 178.472 102.328C178.134 103.129 177.964 104.015 177.964 104.985C177.964 105.955 178.134 106.848 178.472 107.664C178.827 108.465 179.312 109.173 179.928 109.789C180.544 110.39 181.267 110.86 182.099 111.198C182.93 111.522 183.831 111.683 184.801 111.683C185.725 111.683 186.588 111.529 187.389 111.221C188.189 110.913 188.921 110.421 189.583 109.743L190.669 110.829C189.96 111.614 189.09 112.207 188.058 112.607C187.027 113.008 185.918 113.208 184.732 113.208Z" fill="white"/>
<path d="M207.972 113.208C206.755 113.208 205.624 113.008 204.576 112.607C203.545 112.192 202.644 111.614 201.874 110.875C201.119 110.12 200.526 109.25 200.095 108.265C199.68 107.264 199.472 106.17 199.472 104.985C199.472 103.799 199.68 102.713 200.095 101.728C200.526 100.727 201.119 99.8568 201.874 99.1176C202.644 98.3631 203.545 97.7856 204.576 97.3852C205.608 96.9694 206.74 96.7615 207.972 96.7615C209.189 96.7615 210.313 96.9694 211.344 97.3852C212.376 97.7856 213.269 98.3554 214.024 99.0945C214.794 99.8337 215.387 100.704 215.803 101.705C216.234 102.706 216.449 103.799 216.449 104.985C216.449 106.17 216.234 107.264 215.803 108.265C215.387 109.266 214.794 110.136 214.024 110.875C213.269 111.614 212.376 112.192 211.344 112.607C210.313 113.008 209.189 113.208 207.972 113.208ZM207.972 111.683C208.942 111.683 209.835 111.522 210.651 111.198C211.483 110.86 212.199 110.39 212.8 109.789C213.416 109.173 213.893 108.465 214.232 107.664C214.571 106.848 214.74 105.955 214.74 104.985C214.74 104.015 214.571 103.129 214.232 102.328C213.893 101.512 213.416 100.804 212.8 100.203C212.199 99.5873 211.483 99.1176 210.651 98.7942C209.835 98.4555 208.942 98.2861 207.972 98.2861C207.002 98.2861 206.101 98.4555 205.269 98.7942C204.438 99.1176 203.714 99.5873 203.098 100.203C202.498 100.804 202.02 101.512 201.666 102.328C201.327 103.129 201.158 104.015 201.158 104.985C201.158 105.94 201.327 106.825 201.666 107.641C202.02 108.457 202.498 109.173 203.098 109.789C203.714 110.39 204.438 110.86 205.269 111.198C206.101 111.522 207.002 111.683 207.972 111.683Z" fill="white"/>
<path d="M227.21 113.069V96.9001H228.92V111.591H237.974V113.069H227.21Z" fill="white"/>
<path d="M254.495 113.208C253.278 113.208 252.146 113.008 251.099 112.607C250.067 112.192 249.167 111.614 248.397 110.875C247.642 110.12 247.049 109.25 246.618 108.265C246.202 107.264 245.994 106.17 245.994 104.985C245.994 103.799 246.202 102.713 246.618 101.728C247.049 100.727 247.642 99.8568 248.397 99.1176C249.167 98.3631 250.067 97.7856 251.099 97.3852C252.131 96.9694 253.263 96.7615 254.495 96.7615C255.711 96.7615 256.835 96.9694 257.867 97.3852C258.899 97.7856 259.792 98.3554 260.547 99.0945C261.317 99.8337 261.91 100.704 262.325 101.705C262.756 102.706 262.972 103.799 262.972 104.985C262.972 106.17 262.756 107.264 262.325 108.265C261.91 109.266 261.317 110.136 260.547 110.875C259.792 111.614 258.899 112.192 257.867 112.607C256.835 113.008 255.711 113.208 254.495 113.208ZM254.495 111.683C255.465 111.683 256.358 111.522 257.174 111.198C258.006 110.86 258.722 110.39 259.322 109.789C259.938 109.173 260.416 108.465 260.755 107.664C261.093 106.848 261.263 105.955 261.263 104.985C261.263 104.015 261.093 103.129 260.755 102.328C260.416 101.512 259.938 100.804 259.322 100.203C258.722 99.5873 258.006 99.1176 257.174 98.7942C256.358 98.4555 255.465 98.2861 254.495 98.2861C253.525 98.2861 252.624 98.4555 251.792 98.7942C250.961 99.1176 250.237 99.5873 249.621 100.203C249.02 100.804 248.543 101.512 248.189 102.328C247.85 103.129 247.681 104.015 247.681 104.985C247.681 105.94 247.85 106.825 248.189 107.641C248.543 108.457 249.02 109.173 249.621 109.789C250.237 110.39 250.961 110.86 251.792 111.198C252.624 111.522 253.525 111.683 254.495 111.683Z" fill="white"/>
<path d="M280.824 113.208C279.593 113.208 278.453 113.008 277.406 112.607C276.374 112.192 275.473 111.614 274.703 110.875C273.949 110.136 273.356 109.266 272.925 108.265C272.509 107.264 272.301 106.17 272.301 104.985C272.301 103.799 272.509 102.706 272.925 101.705C273.356 100.704 273.956 99.8337 274.726 99.0945C275.496 98.3554 276.397 97.7856 277.429 97.3852C278.476 96.9694 279.616 96.7615 280.848 96.7615C282.079 96.7615 283.204 96.954 284.22 97.339C285.252 97.724 286.13 98.3092 286.853 99.0945L285.791 100.18C285.113 99.5026 284.366 99.0175 283.55 98.7249C282.734 98.4324 281.856 98.2861 280.917 98.2861C279.916 98.2861 278.992 98.4555 278.145 98.7942C277.313 99.1176 276.582 99.5873 275.951 100.203C275.335 100.804 274.85 101.512 274.495 102.328C274.157 103.129 273.987 104.015 273.987 104.985C273.987 105.94 274.157 106.825 274.495 107.641C274.85 108.457 275.335 109.173 275.951 109.789C276.582 110.39 277.313 110.86 278.145 111.198C278.992 111.522 279.908 111.683 280.894 111.683C281.818 111.683 282.688 111.545 283.504 111.268C284.335 110.99 285.098 110.521 285.791 109.859L286.761 111.152C285.991 111.83 285.09 112.346 284.058 112.7C283.027 113.039 281.949 113.208 280.824 113.208ZM285.121 110.944V104.985H286.761V111.152L285.121 110.944Z" fill="white"/>
<path d="M298.528 113.069V96.9001H300.238V113.069H298.528Z" fill="white"/>
<path d="M309.841 113.069L317.233 96.9001H318.919L326.311 113.069H324.509L317.718 97.8934H318.411L311.62 113.069H309.841ZM312.752 108.75L313.26 107.364H322.661L323.169 108.75H312.752Z" fill="white"/>
</svg>
