<svg width="203" height="53" viewBox="0 0 203 53" fill="none" xmlns="http://www.w3.org/2000/svg">
<path d="M18.6786 20.0511C18.4508 19.9147 18.0864 19.9602 17.8586 20.4149C17.813 20.4149 17.813 20.5058 17.7674 20.5513C16.2185 23.325 10.7516 32.3735 5.96804 32.3735C4.73799 32.3735 2.96124 30.3273 2.96124 25.9622C2.96124 21.5971 4.64687 16.0952 7.60811 10.7752C10.0227 6.41008 12.8928 3.09077 14.3051 3.09077C14.4873 3.09077 14.9429 3.54547 14.9429 4.90957C14.9429 5.7735 14.8518 6.6829 14.624 7.54684C14.5329 7.9106 14.7151 8.31983 15.0796 8.45624C15.3985 8.59265 15.8085 8.50171 15.9907 8.00154C16.264 7.4559 16.7652 5.81897 16.7652 4.72769C16.7652 3.5 16.0818 1.2265 13.4395 1.2265C10.7516 1.2265 7.42588 4.36393 4.46464 9.59299C1.68563 14.5492 0 20.1875 0 24.2798C0 26.5533 0.501133 28.8723 1.36673 30.6002C2.46011 32.7373 4.05462 33.874 5.96804 33.874C8.56482 33.874 11.5261 31.6915 14.7606 27.5082C17.2208 24.2798 18.9064 21.0969 18.9975 20.8696C19.0886 20.5058 18.9519 20.1875 18.6786 20.0511Z" fill="#6C6C6C"/>
<path d="M32.2245 20.5058C31.9967 20.3694 31.6323 20.3694 31.3133 20.8241C29.7188 23.0976 27.4865 25.5075 26.0287 25.5075C25.5731 25.5075 25.072 24.9164 25.072 23.8706C25.072 21.8699 26.1653 19.2781 26.5754 18.3232C26.6665 18.0959 26.712 17.9595 26.712 17.914C26.8487 17.4593 26.4842 17.0046 26.0287 16.6863C25.5275 16.368 24.7986 16.1862 24.2064 16.6863C23.9786 16.9137 23.7508 17.232 23.6141 17.5503C23.2041 17.2774 22.3385 16.7318 21.3362 16.7318C18.2383 16.7318 15.7782 20.8696 15.7782 24.2344C15.7782 27.008 17.2816 27.7356 18.1928 27.7356C19.5595 27.7356 21.1085 25.6439 22.4296 23.6432C22.4752 23.5523 22.5207 23.4614 22.5663 23.4159C22.7485 24.5072 23.113 25.3711 23.7052 26.0077C24.2519 26.6443 25.0264 27.008 25.8464 27.008C27.2587 27.008 28.7621 26.0986 30.3566 24.3253C31.5411 22.9612 32.3612 21.5516 32.4523 21.3243C32.589 21.006 32.4978 20.6422 32.2245 20.5058ZM22.5663 20.4149C22.0652 21.4152 19.4228 25.7803 18.2383 25.9168C18.2383 25.8713 18.2383 25.8258 18.2383 25.8258C18.2383 22.2337 21.2907 19.0508 22.3385 18.9144C22.4752 19.0962 22.6119 19.7783 22.6119 20.2785C22.6119 20.3239 22.5663 20.3694 22.5663 20.4149Z" fill="#6C6C6C"/>
<path d="M45.7049 19.5964C45.5227 19.3236 45.2038 19.2326 44.9304 19.3691C44.4293 19.5509 43.8826 19.5964 43.3359 19.6419C41.4225 19.6419 40.9214 18.687 40.3291 17.6412C39.8735 16.8227 39.3724 15.9588 38.0968 15.9588C37.0945 15.9588 35.7278 17.141 33.9055 19.5509C35.09 16.7318 36.2289 14.5492 36.4567 14.1855C36.639 13.8217 36.5023 13.367 36.0467 12.9578C35.5 12.4576 34.6344 12.2303 33.9055 12.7759C32.9032 13.5944 29.0308 22.2337 29.0308 27.4173C29.0308 28.5995 29.6686 28.8268 29.942 28.8268C29.9876 28.8723 30.0331 28.8723 30.0787 28.8723C30.6254 28.8723 31.172 28.4176 31.3543 27.781C31.3998 27.6901 31.3998 27.5991 31.3998 27.5082C31.4454 27.5082 31.4454 27.5082 31.4454 27.4627C31.4454 27.4627 31.491 27.3718 31.5821 27.1899C34.0877 22.1427 36.5478 19.3236 38.1879 17.8685C38.1879 17.914 38.2335 17.9595 38.2335 17.9595C40.1013 21.0515 42.2881 21.0515 43.3359 21.0515C44.8849 21.0515 45.4316 20.5058 45.6138 20.3694C45.8416 20.142 45.8871 19.8238 45.7049 19.5964Z" fill="#6C6C6C"/>
<path d="M56.9117 20.1421C56.6384 19.9602 56.1372 20.0966 55.9094 20.3239C55.7728 20.5058 55.6817 20.6877 55.545 20.8696C50.6703 28.554 48.1191 30.1455 46.8435 30.1455C46.2512 30.1455 45.5223 29.5998 45.5223 27.0535C45.5223 25.4621 45.7957 22.7338 47.0713 19.0508C48.7114 18.2323 51.5359 15.5496 53.9049 12.4121C57.8229 7.31949 58.3696 4.13658 58.3696 2.72701C58.3696 1.63573 57.7318 0.999145 56.6839 0.999145C54.0871 0.999145 50.397 5.81897 48.028 9.91128C44.7478 15.6405 42.7889 21.6426 42.7889 25.9622C42.7889 30.2364 44.9756 31.7824 46.8891 31.7824C48.6658 31.7824 50.8981 29.9636 53.5405 26.4169C55.4539 23.7797 56.9573 21.0969 57.0939 20.8241C57.2306 20.5058 57.0939 20.2785 56.9117 20.1421ZM50.7159 11.0935C53.4493 6.31914 56.2284 3.09077 56.8662 2.86342C56.8662 2.90889 56.8662 2.95436 56.8662 2.99983C56.8662 5.54615 53.2216 12.7304 47.9369 16.6863C48.7569 14.7766 49.6681 12.8668 50.7159 11.0935Z" fill="#6C6C6C"/>
<path d="M70.2633 20.5058C70.0355 20.3694 69.671 20.3694 69.3521 20.8241C67.7576 23.0976 65.5253 25.5075 64.0675 25.5075C63.6119 25.5075 63.1107 24.9164 63.1107 23.8706C63.1107 21.8699 64.2041 19.2781 64.6141 18.3232C64.7053 18.0959 64.7508 17.9595 64.7508 17.914C64.8875 17.4593 64.523 17.0046 64.0675 16.6863C63.5663 16.368 62.8374 16.1862 62.2452 16.6863C62.0174 16.9137 61.7896 17.232 61.6529 17.5503C61.2429 17.2774 60.3773 16.7318 59.375 16.7318C56.2771 16.7318 53.817 20.8696 53.817 24.2344C53.817 27.008 55.3204 27.7356 56.2316 27.7356C57.5983 27.7356 59.1472 25.6439 60.4684 23.6432C60.514 23.5523 60.5595 23.4614 60.6051 23.4159C60.7873 24.5072 61.1518 25.3711 61.744 26.0077C62.2907 26.6443 63.0652 27.008 63.8852 27.008C65.2975 27.008 66.8009 26.0986 68.3954 24.3253C69.5799 22.9612 70.4 21.5516 70.4911 21.3243C70.6277 21.006 70.5366 20.6422 70.2633 20.5058ZM60.6051 20.4149C60.1039 21.4152 57.4616 25.7803 56.2771 25.9168C56.2771 25.8713 56.2771 25.8258 56.2771 25.8258C56.2771 22.2337 59.3295 19.0508 60.3773 18.9144C60.514 19.0962 60.6506 19.7783 60.6506 20.2785C60.6506 20.3239 60.6051 20.3694 60.6051 20.4149Z" fill="#6C6C6C"/>
<path d="M113.049 1.04461C112.73 1.04461 112.456 1.31743 112.456 1.63573C112.411 1.95402 112.684 2.22683 113.003 2.22683C113.094 2.27231 113.823 2.63607 113.823 4.04564C113.823 7.04667 110.862 13.6853 106.671 20.2785C102.297 27.1444 98.1057 31.555 95.9645 31.555C95.2811 31.555 94.37 30.2364 94.37 27.2809C94.37 24.9164 95.4634 19.5964 96.4201 14.913C97.2401 10.7752 97.969 7.22855 97.969 5.81897C97.969 1.3629 95.5089 0.908203 94.4155 0.908203C92.4566 0.908203 89.9965 2.40872 87.9919 4.90957C85.8052 7.59231 84.5751 10.8662 84.5751 13.9126C84.5751 17.3229 86.033 18.0504 86.6252 18.0504C86.9441 18.0504 87.2175 17.914 87.263 17.6412C87.3541 17.3229 87.2175 17.0046 86.9441 16.7773C86.8986 16.7318 86.853 16.7318 86.8074 16.6863C86.3974 16.5499 86.1696 15.686 86.1696 14.14C86.1696 10.366 88.2197 7.41042 89.4498 5.95538C91.181 3.90923 93.3222 2.49966 94.7345 2.49966C95.19 2.49966 95.3267 2.86342 95.3267 3.90923C95.3267 5.90991 94.5522 8.95641 93.6866 12.5031C92.6388 16.9591 91.4088 22.0063 91.4088 26.1441C91.4088 28.0084 91.7732 29.6908 92.411 30.9639C93.2311 32.5099 94.5067 33.3284 96.1012 33.3284C100.384 33.3284 106.169 24.7345 108.447 21.006C112.502 14.4583 115.554 7.4559 115.554 4.72769C115.554 3.40906 115.144 2.54513 114.78 2.04496C114.324 1.40838 113.686 1.04461 113.049 1.04461Z" fill="#6C6C6C"/>
<path d="M128.145 20.5058C127.917 20.3694 127.552 20.3694 127.233 20.8241C125.639 23.0976 123.407 25.5075 121.949 25.5075C121.493 25.5075 120.992 24.9164 120.992 23.8706C120.992 21.8699 122.085 19.2781 122.495 18.3232C122.586 18.0959 122.632 17.9595 122.632 17.914C122.769 17.4593 122.404 17.0046 121.949 16.6863C121.448 16.368 120.719 16.1862 120.126 16.6863C119.899 16.9137 119.671 17.232 119.534 17.5503C119.124 17.2774 118.259 16.7318 117.256 16.7318C114.158 16.7318 111.698 20.8696 111.698 24.2344C111.698 27.008 113.202 27.7356 114.113 27.7356C115.48 27.7356 117.028 25.6439 118.35 23.6432C118.395 23.5523 118.441 23.4614 118.486 23.4159C118.669 24.5072 119.033 25.3711 119.625 26.0077C120.172 26.6443 120.946 27.008 121.766 27.008C123.179 27.008 124.682 26.0986 126.277 24.3253C127.461 22.9612 128.281 21.5516 128.372 21.3243C128.509 21.006 128.418 20.6422 128.145 20.5058ZM118.486 20.4149C117.985 21.4152 115.343 25.7803 114.158 25.9168C114.158 25.8713 114.158 25.8258 114.158 25.8258C114.158 22.2337 117.211 19.0508 118.259 18.9144C118.395 19.0962 118.532 19.7783 118.532 20.2785C118.532 20.3239 118.486 20.3694 118.486 20.4149Z" fill="#6C6C6C"/>
<path d="M141.625 19.5964C141.443 19.3236 141.124 19.2326 140.85 19.3691C140.349 19.5509 139.803 19.5964 139.256 19.6419C137.343 19.6419 136.841 18.687 136.249 17.6412C135.794 16.8227 135.292 15.9588 134.017 15.9588C133.015 15.9588 131.648 17.141 129.826 19.5509C131.01 16.7318 132.149 14.5492 132.377 14.1855C132.559 13.8217 132.422 13.367 131.967 12.9578C131.42 12.4576 130.554 12.2303 129.826 12.7759C128.823 13.5944 124.951 22.2337 124.951 27.4173C124.951 28.5995 125.589 28.8268 125.862 28.8268C125.908 28.8723 125.953 28.8723 125.999 28.8723C126.545 28.8723 127.092 28.4176 127.274 27.781C127.32 27.6901 127.32 27.5991 127.32 27.5082C127.365 27.5082 127.365 27.5082 127.365 27.4627C127.365 27.4627 127.411 27.3718 127.502 27.1899C130.008 22.1427 132.468 19.3236 134.108 17.8685C134.108 17.914 134.153 17.9595 134.153 17.9595C136.021 21.0515 138.208 21.0515 139.256 21.0515C140.805 21.0515 141.352 20.5058 141.534 20.3694C141.762 20.142 141.807 19.8238 141.625 19.5964Z" fill="#6C6C6C"/>
<path d="M154.927 20.5058C154.7 20.3694 154.335 20.3694 154.016 20.8241C152.422 23.0976 150.189 25.5075 148.732 25.5075C148.276 25.5075 147.775 24.9164 147.775 23.8706C147.775 21.8699 148.868 19.2781 149.278 18.3232C149.369 18.0959 149.415 17.9595 149.415 17.914C149.552 17.4593 149.187 17.0046 148.732 16.6863C148.23 16.368 147.501 16.1862 146.909 16.6863C146.681 16.9137 146.454 17.232 146.317 17.5503C145.907 17.2774 145.041 16.7318 144.039 16.7318C140.941 16.7318 138.481 20.8696 138.481 24.2344C138.481 27.008 139.985 27.7356 140.896 27.7356C142.262 27.7356 143.811 25.6439 145.133 23.6432C145.178 23.5523 145.224 23.4614 145.269 23.4159C145.451 24.5072 145.816 25.3711 146.408 26.0077C146.955 26.6443 147.729 27.008 148.549 27.008C149.962 27.008 151.465 26.0986 153.06 24.3253C154.244 22.9612 155.064 21.5516 155.155 21.3243C155.292 21.006 155.201 20.6422 154.927 20.5058ZM145.269 20.4149C144.768 21.4152 142.126 25.7803 140.941 25.9168C140.941 25.8713 140.941 25.8258 140.941 25.8258C140.941 22.2337 143.994 19.0508 145.041 18.9144C145.178 19.0962 145.315 19.7783 145.315 20.2785C145.315 20.3239 145.269 20.3694 145.269 20.4149Z" fill="#6C6C6C"/>
<path d="M171.961 19.8238C171.825 19.7328 171.642 19.6873 171.46 19.7328C171.323 19.7783 171.187 19.9147 171.096 20.0511C170.686 20.7786 167.178 25.2802 164.945 25.2802C164.809 25.2802 164.308 25.2802 164.308 23.4159C164.308 22.552 164.353 21.779 164.444 21.006C164.49 20.233 164.535 19.5055 164.535 18.7325C164.535 16.9137 163.442 16.2316 162.531 16.2316C160.982 16.2316 158.75 18.9144 156.791 21.4607C156.654 21.6426 156.517 21.8244 156.381 21.9609C156.973 20.2785 157.611 18.5961 158.112 17.232C158.75 15.5496 159.023 14.6856 159.068 14.4583C159.16 14.0036 158.75 13.4579 158.294 13.1397C157.747 12.7759 157.11 12.7304 156.608 13.0942C155.606 13.7762 151.734 23.7342 151.734 27.008C151.734 27.9174 152.417 28.4176 153.1 28.5085C153.146 28.5085 153.237 28.5085 153.328 28.5085C153.875 28.5085 154.331 28.2357 154.467 27.8265C157.155 23.5978 160.617 19.9147 161.802 19.0053C161.802 19.1872 161.802 19.5055 161.756 19.7783C161.711 20.2785 161.665 20.915 161.665 21.5971C161.665 24.78 163.078 26.8716 165.219 26.8716C168.544 26.8716 172.235 20.7786 172.235 20.7332C172.417 20.3694 172.28 19.9602 171.961 19.8238Z" fill="#6C6C6C"/>
<path d="M189.408 20.3694C189.089 20.1875 188.633 20.2785 188.405 20.5513C188.269 20.7332 188.132 20.915 188.041 21.0969C183.166 28.7814 180.615 30.3728 179.294 30.3728C178.702 30.3728 177.973 29.8272 177.973 27.2809C177.973 25.6894 178.246 22.9612 179.522 19.2326C181.207 18.4597 183.986 15.7315 186.355 12.6395C190.273 7.50137 190.866 4.36393 190.866 2.95436C190.866 1.86308 190.228 1.2265 189.134 1.2265C186.583 1.2265 182.893 6.04632 180.524 10.1386C179.203 12.3667 178.109 14.6856 177.198 17.0956C176.788 16.7318 176.105 16.1862 175.103 16.1862C171.367 16.1862 169.362 21.3243 169.362 23.9615C169.362 27.8265 171.868 27.872 171.868 27.872C172.779 27.872 173.873 26.7352 175.33 24.2798C175.33 24.2344 175.376 24.1889 175.376 24.1889C175.285 24.8255 175.239 25.5075 175.239 26.1896C175.239 30.4638 177.472 31.9643 179.339 31.9643C181.116 31.9643 183.349 30.1909 185.991 26.5988C187.904 24.007 189.408 21.2788 189.544 21.006C189.681 20.6877 189.544 20.4603 189.408 20.3694ZM183.166 11.2754C185.9 6.54649 188.679 3.27265 189.317 3.09077C189.317 3.13624 189.317 3.18171 189.317 3.22718C189.317 5.72803 185.672 12.9578 180.387 16.9137C181.207 14.9585 182.164 13.0942 183.166 11.2754ZM172.096 26.0077C172.096 25.9168 172.096 25.7803 172.096 25.7349C172.096 21.9154 174.601 18.1414 175.74 18.1414C175.877 18.1414 176.287 18.6415 176.378 18.9144C176.378 18.9598 176.378 19.0053 176.424 19.0053C174.647 22.9612 172.551 25.6894 172.096 26.0077Z" fill="#6C6C6C"/>
<path d="M202.709 20.5058C202.482 20.3694 202.117 20.3694 201.798 20.8241C200.204 23.0976 197.971 25.5075 196.514 25.5075C196.058 25.5075 195.557 24.9164 195.557 23.8706C195.557 21.8699 196.65 19.2781 197.06 18.3232C197.151 18.0959 197.197 17.9595 197.197 17.914C197.334 17.4593 196.969 17.0046 196.514 16.6863C196.012 16.368 195.284 16.1862 194.691 16.6863C194.464 16.9137 194.236 17.232 194.099 17.5503C193.689 17.2774 192.823 16.7318 191.821 16.7318C188.723 16.7318 186.263 20.8696 186.263 24.2344C186.263 27.008 187.767 27.7356 188.678 27.7356C190.044 27.7356 191.593 25.6439 192.915 23.6432C192.96 23.5523 193.006 23.4614 193.051 23.4159C193.233 24.5072 193.598 25.3711 194.19 26.0077C194.737 26.6443 195.511 27.008 196.331 27.008C197.744 27.008 199.247 26.0986 200.842 24.3253C202.026 22.9612 202.846 21.5516 202.937 21.3243C203.074 21.006 202.983 20.6422 202.709 20.5058ZM193.051 20.4149C192.55 21.4152 189.908 25.7803 188.723 25.9168C188.723 25.8713 188.723 25.8258 188.723 25.8258C188.723 22.2337 191.776 19.0508 192.823 18.9144C192.96 19.0962 193.097 19.7783 193.097 20.2785C193.097 20.3239 193.051 20.3694 193.051 20.4149Z" fill="#6C6C6C"/>
<path d="M53.7863 52.0261V44.35H56.5235C57.1434 44.35 57.6762 44.456 58.122 44.668C58.5677 44.8727 58.909 45.1724 59.1458 45.5672C59.3896 45.9546 59.5115 46.4262 59.5115 46.9818C59.5115 47.5228 59.3896 47.9906 59.1458 48.3854C58.909 48.7729 58.5677 49.0726 58.122 49.2846C57.6762 49.4966 57.1434 49.6026 56.5235 49.6026H54.2147L54.5594 49.2188V52.0261H53.7863ZM54.5594 49.2846L54.2147 48.8898H56.5026C57.234 48.8898 57.7877 48.7254 58.1638 48.3964C58.5469 48.0601 58.7384 47.5886 58.7384 46.9818C58.7384 46.3677 58.5469 45.8925 58.1638 45.5562C57.7877 45.2199 57.234 45.0518 56.5026 45.0518H54.2147L54.5594 44.668V49.2846Z" fill="#6C6C6C"/>
<path d="M66.4358 52.0919C65.8925 52.0919 65.3701 52.0005 64.8687 51.8177C64.3741 51.6277 63.9911 51.3864 63.7194 51.094L64.0224 50.4689C64.2801 50.7321 64.6249 50.9551 65.0567 51.1378C65.4955 51.3133 65.9552 51.401 66.4358 51.401C66.8954 51.401 67.2681 51.3425 67.5536 51.2256C67.8462 51.1013 68.0586 50.9368 68.1909 50.7321C68.3302 50.5274 68.3999 50.3008 68.3999 50.0522C68.3999 49.7525 68.3163 49.5112 68.1491 49.3285C67.9889 49.1457 67.7765 49.0032 67.5118 48.9008C67.2472 48.7911 66.9547 48.6961 66.6343 48.6157C66.3139 48.5353 65.9935 48.4512 65.6731 48.3635C65.3527 48.2684 65.0567 48.1442 64.7851 47.9906C64.5204 47.8371 64.3045 47.6361 64.1373 47.3875C63.9771 47.1316 63.897 46.799 63.897 46.3896C63.897 46.0095 63.9911 45.6622 64.1791 45.3479C64.3741 45.0262 64.6702 44.7703 65.0672 44.5803C65.4642 44.3829 65.9726 44.2842 66.5925 44.2842C67.0034 44.2842 67.4109 44.3463 67.8148 44.4706C68.2188 44.5876 68.567 44.7521 68.8596 44.9641L68.5984 45.611C68.285 45.3917 67.9506 45.2309 67.5954 45.1286C67.2472 45.0262 66.9094 44.975 66.582 44.975C66.1432 44.975 65.7811 45.0372 65.4955 45.1614C65.2099 45.2857 64.9975 45.4539 64.8582 45.6659C64.7259 45.8706 64.6597 46.1045 64.6597 46.3677C64.6597 46.6674 64.7398 46.9087 64.9 47.0914C65.0672 47.2742 65.2831 47.4168 65.5477 47.5191C65.8194 47.6215 66.1154 47.7128 66.4358 47.7933C66.7562 47.8737 67.0731 47.9614 67.3865 48.0564C67.7069 48.1515 67.9994 48.2758 68.2641 48.4293C68.5357 48.5755 68.7516 48.7729 68.9118 49.0214C69.079 49.27 69.1625 49.5953 69.1625 49.9974C69.1625 50.3702 69.065 50.7175 68.87 51.0391C68.675 51.3535 68.3755 51.6094 67.9715 51.8068C67.5745 51.9968 67.0626 52.0919 66.4358 52.0919Z" fill="#6C6C6C"/>
<path d="M73.9812 52.0261V44.35H74.7544V52.0261H73.9812Z" fill="#6C6C6C"/>
<path d="M83.4441 52.0919C82.8938 52.0919 82.3854 51.9968 81.9187 51.8068C81.4521 51.6094 81.0481 51.3352 80.7068 50.9843C80.3656 50.6334 80.0974 50.2204 79.9024 49.7452C79.7143 49.27 79.6203 48.7509 79.6203 48.188C79.6203 47.6251 79.7143 47.1061 79.9024 46.6309C80.0974 46.1557 80.3656 45.7426 80.7068 45.3917C81.0551 45.0408 81.4625 44.7703 81.9292 44.5803C82.3958 44.3829 82.9043 44.2842 83.4545 44.2842C83.9839 44.2842 84.4818 44.3792 84.9485 44.5693C85.4151 44.7521 85.8087 45.0299 86.1291 45.4027L85.638 45.9181C85.3385 45.5964 85.0077 45.3661 84.6455 45.2272C84.2833 45.081 83.8933 45.0079 83.4754 45.0079C83.0366 45.0079 82.6292 45.0883 82.2531 45.2492C81.877 45.4027 81.5496 45.6257 81.271 45.9181C80.9924 46.2032 80.773 46.5395 80.6128 46.927C80.4596 47.3071 80.383 47.7275 80.383 48.188C80.383 48.6486 80.4596 49.0726 80.6128 49.4601C80.773 49.8402 80.9924 50.1765 81.271 50.4689C81.5496 50.754 81.877 50.977 82.2531 51.1378C82.6292 51.2914 83.0366 51.3681 83.4754 51.3681C83.8933 51.3681 84.2833 51.295 84.6455 51.1488C85.0077 51.0026 85.3385 50.7687 85.638 50.447L86.1291 50.9624C85.8087 51.3352 85.4151 51.6167 84.9485 51.8068C84.4818 51.9968 83.9804 52.0919 83.4441 52.0919Z" fill="#6C6C6C"/>
<path d="M93.9552 52.0919C93.405 52.0919 92.8931 51.9968 92.4195 51.8068C91.9528 51.6094 91.5454 51.3352 91.1971 50.9843C90.8558 50.6261 90.5877 50.2131 90.3927 49.7452C90.2046 49.27 90.1106 48.7509 90.1106 48.188C90.1106 47.6251 90.2046 47.1097 90.3927 46.6418C90.5877 46.1667 90.8558 45.7536 91.1971 45.4027C91.5454 45.0445 91.9528 44.7703 92.4195 44.5803C92.8861 44.3829 93.398 44.2842 93.9552 44.2842C94.5055 44.2842 95.0139 44.3829 95.4805 44.5803C95.9472 44.7703 96.3512 45.0408 96.6924 45.3917C97.0407 45.7426 97.3088 46.1557 97.4969 46.6309C97.6919 47.1061 97.7894 47.6251 97.7894 48.188C97.7894 48.7509 97.6919 49.27 97.4969 49.7452C97.3088 50.2204 97.0407 50.6334 96.6924 50.9843C96.3512 51.3352 95.9472 51.6094 95.4805 51.8068C95.0139 51.9968 94.5055 52.0919 93.9552 52.0919ZM93.9552 51.3681C94.394 51.3681 94.798 51.2914 95.1671 51.1378C95.5432 50.977 95.8671 50.754 96.1387 50.4689C96.4173 50.1765 96.6332 49.8402 96.7865 49.4601C96.9397 49.0726 97.0163 48.6486 97.0163 48.188C97.0163 47.7275 96.9397 47.3071 96.7865 46.927C96.6332 46.5395 96.4173 46.2032 96.1387 45.9181C95.8671 45.6257 95.5432 45.4027 95.1671 45.2492C94.798 45.0883 94.394 45.0079 93.9552 45.0079C93.5164 45.0079 93.109 45.0883 92.7329 45.2492C92.3568 45.4027 92.0294 45.6257 91.7508 45.9181C91.4792 46.2032 91.2633 46.5395 91.1031 46.927C90.9499 47.3071 90.8732 47.7275 90.8732 48.188C90.8732 48.6413 90.9499 49.0616 91.1031 49.4491C91.2633 49.8366 91.4792 50.1765 91.7508 50.4689C92.0294 50.754 92.3568 50.977 92.7329 51.1378C93.109 51.2914 93.5164 51.3681 93.9552 51.3681Z" fill="#6C6C6C"/>
<path d="M102.657 52.0261V44.35H103.43V51.3243H107.525V52.0261H102.657Z" fill="#6C6C6C"/>
<path d="M114.997 52.0919C114.447 52.0919 113.935 51.9968 113.461 51.8068C112.995 51.6094 112.587 51.3352 112.239 50.9843C111.898 50.6261 111.629 50.2131 111.434 49.7452C111.246 49.27 111.152 48.7509 111.152 48.188C111.152 47.6251 111.246 47.1097 111.434 46.6418C111.629 46.1667 111.898 45.7536 112.239 45.4027C112.587 45.0445 112.995 44.7703 113.461 44.5803C113.928 44.3829 114.44 44.2842 114.997 44.2842C115.547 44.2842 116.056 44.3829 116.522 44.5803C116.989 44.7703 117.393 45.0408 117.734 45.3917C118.082 45.7426 118.351 46.1557 118.539 46.6309C118.734 47.1061 118.831 47.6251 118.831 48.188C118.831 48.7509 118.734 49.27 118.539 49.7452C118.351 50.2204 118.082 50.6334 117.734 50.9843C117.393 51.3352 116.989 51.6094 116.522 51.8068C116.056 51.9968 115.547 52.0919 114.997 52.0919ZM114.997 51.3681C115.436 51.3681 115.84 51.2914 116.209 51.1378C116.585 50.977 116.909 50.754 117.18 50.4689C117.459 50.1765 117.675 49.8402 117.828 49.4601C117.981 49.0726 118.058 48.6486 118.058 48.188C118.058 47.7275 117.981 47.3071 117.828 46.927C117.675 46.5395 117.459 46.2032 117.18 45.9181C116.909 45.6257 116.585 45.4027 116.209 45.2492C115.84 45.0883 115.436 45.0079 114.997 45.0079C114.558 45.0079 114.151 45.0883 113.775 45.2492C113.399 45.4027 113.071 45.6257 112.793 45.9181C112.521 46.2032 112.305 46.5395 112.145 46.927C111.992 47.3071 111.915 47.7275 111.915 48.188C111.915 48.6413 111.992 49.0616 112.145 49.4491C112.305 49.8366 112.521 50.1765 112.793 50.4689C113.071 50.754 113.399 50.977 113.775 51.1378C114.151 51.2914 114.558 51.3681 114.997 51.3681Z" fill="#6C6C6C"/>
<path d="M126.906 52.0919C126.348 52.0919 125.833 51.9968 125.359 51.8068C124.893 51.6094 124.485 51.3352 124.137 50.9843C123.796 50.6334 123.528 50.2204 123.333 49.7452C123.145 49.27 123.051 48.7509 123.051 48.188C123.051 47.6251 123.145 47.1061 123.333 46.6309C123.528 46.1557 123.799 45.7426 124.148 45.3917C124.496 45.0408 124.903 44.7703 125.37 44.5803C125.843 44.3829 126.359 44.2842 126.916 44.2842C127.473 44.2842 127.982 44.3756 128.441 44.5583C128.908 44.7411 129.305 45.0189 129.632 45.3917L129.152 45.9071C128.845 45.5855 128.508 45.3552 128.138 45.2163C127.769 45.0774 127.372 45.0079 126.947 45.0079C126.495 45.0079 126.077 45.0883 125.694 45.2492C125.318 45.4027 124.987 45.6257 124.701 45.9181C124.423 46.2032 124.203 46.5395 124.043 46.927C123.89 47.3071 123.813 47.7275 123.813 48.188C123.813 48.6413 123.89 49.0616 124.043 49.4491C124.203 49.8366 124.423 50.1765 124.701 50.4689C124.987 50.754 125.318 50.977 125.694 51.1378C126.077 51.2914 126.491 51.3681 126.937 51.3681C127.355 51.3681 127.748 51.3023 128.118 51.1707C128.494 51.0391 128.838 50.8162 129.152 50.5018L129.591 51.1159C129.242 51.4376 128.835 51.6825 128.368 51.8506C127.902 52.0115 127.414 52.0919 126.906 52.0919ZM128.849 51.0172V48.188H129.591V51.1159L128.849 51.0172Z" fill="#6C6C6C"/>
<path d="M134.913 52.0261V44.35H135.686V52.0261H134.913Z" fill="#6C6C6C"/>
<path d="M140.03 52.0261L143.373 44.35H144.135L147.479 52.0261H146.664L143.592 44.8215H143.906L140.834 52.0261H140.03ZM141.346 49.9755L141.576 49.3175H145.828L146.058 49.9755H141.346Z" fill="#6C6C6C"/>
</svg>
